HIERARCHY
ROOT Hips
{
	OFFSET	0.00	0.00	0.00
	CHANNELS 6 Xposition Yposition Zposition Zrotation Xrotation Yrotation
	JOINT LeftUpLeg
	{
		OFFSET	 0.126116	-0.065224	 0.014019
		CHANNELS 3 Zrotation Xrotation Yrotation
		JOINT LeftLeg
		{
			OFFSET	 0.000000	 0.569914	 0.000000
			CHANNELS 3 Zrotation Xrotation Yrotation
			JOINT LeftFoot
			{
				OFFSET	 0.000000	 0.544423	 0.000000
				CHANNELS 3 Zrotation Xrotation Yrotation
				JOINT LeftToeBase
				{
					OFFSET	 0.000000	 0.207117	 0.000000
					CHANNELS 3 Zrotation Xrotation Yrotation
					End Site
					{
						OFFSET	 0.000000	 0.207117	 0.000000
					}
				}
			}
		}
	}
	JOINT RightUpLeg
	{
		OFFSET	-0.124023	-0.065224	 0.008373
		CHANNELS 3 Zrotation Xrotation Yrotation
		JOINT RightLeg
		{
			OFFSET	 0.000000	 0.570047	 0.000000
			CHANNELS 3 Zrotation Xrotation Yrotation
			JOINT RightFoot
			{
				OFFSET	 0.000000	 0.544354	 0.000000
				CHANNELS 3 Zrotation Xrotation Yrotation
				JOINT RightToeBase
				{
					OFFSET	 0.000000	 0.207540	 0.000000
					CHANNELS 3 Zrotation Xrotation Yrotation
					End Site
					{
						OFFSET	 0.000000	 0.207540	 0.000000
					}
				}
			}
		}
	}
	JOINT Spine
	{
		OFFSET	 0.000184	 0.117403	 0.007763
		CHANNELS 3 Zrotation Xrotation Yrotation
		JOINT Spine1
		{
			OFFSET	 0.000000	 0.137269	 0.000000
			CHANNELS 3 Zrotation Xrotation Yrotation
			JOINT Spine2
			{
				OFFSET	 0.000000	 0.156879	 0.000000
				CHANNELS 3 Zrotation Xrotation Yrotation
				JOINT LeftShoulder
				{
					OFFSET	 0.080501	 0.160143	 0.002496
					CHANNELS 3 Zrotation Xrotation Yrotation
					JOINT LeftArm
					{
						OFFSET	 0.000000	 0.164363	 0.000000
						CHANNELS 3 Zrotation Xrotation Yrotation
						JOINT LeftForeArm
						{
							OFFSET	 0.000000	 0.364576	 0.000000
							CHANNELS 3 Zrotation Xrotation Yrotation
							JOINT LeftHand
							{
								OFFSET	 0.000000	 0.360812	 0.000000
								CHANNELS 3 Zrotation Xrotation Yrotation
								JOINT LeftHandIndex1
								{
									OFFSET	 0.000000	 0.086006	 0.000000
									CHANNELS 3 Zrotation Xrotation Yrotation
									JOINT LeftHandIndex2
									{
										OFFSET	 0.000000	 0.047237	 0.000000
										CHANNELS 3 Zrotation Xrotation Yrotation
										JOINT LeftHandIndex3
										{
											OFFSET	-0.004284	 0.038165	 0.000551
											CHANNELS 3 Zrotation Xrotation Yrotation
											End Site
											{
												OFFSET	-0.004284	 0.038165	 0.000551
											}
										}
									}
								}
							}
						}
					}
				}
				JOINT Neck
				{
					OFFSET	 0.000000	 0.176489	 0.000000
					CHANNELS 3 Zrotation Xrotation Yrotation
					JOINT Head
					{
						OFFSET	 0.000000	 0.077941	 0.001747
						CHANNELS 3 Zrotation Xrotation Yrotation
						End Site
						{
							OFFSET	 0.000000	 0.077941	 0.001747
						}
					}
				}
				JOINT RightShoulder
				{
					OFFSET	-0.080363	 0.159706	-0.000306
					CHANNELS 3 Zrotation Xrotation Yrotation
					JOINT RightArm
					{
						OFFSET	 0.000000	 0.164196	 0.000000
						CHANNELS 3 Zrotation Xrotation Yrotation
						JOINT RightForeArm
						{
							OFFSET	 0.000000	 0.365611	 0.000000
							CHANNELS 3 Zrotation Xrotation Yrotation
							JOINT RightHand
							{
								OFFSET	 0.000000	 0.360648	 0.000000
								CHANNELS 3 Zrotation Xrotation Yrotation
								JOINT RightHandIndex1
								{
									OFFSET	 0.000000	 0.069977	 0.000000
									CHANNELS 3 Zrotation Xrotation Yrotation
									JOINT RightHandIndex2
									{
										OFFSET	 0.000000	 0.052305	 0.000000
										CHANNELS 3 Zrotation Xrotation Yrotation
										JOINT RightHandIndex3
										{
											OFFSET	 0.009002	 0.042196	 0.000782
											CHANNELS 3 Zrotation Xrotation Yrotation
											End Site
											{
												OFFSET	 0.009002	 0.042196	 0.000782
											}
										}
									}
								}
							}
						}
					}
				}
			}
		}
	}
}
MOTION
Frames:    4
Frame Time: 0.03333334
 0.002345	 1.271136	 0.063404	-0.392708	 0.004950	-179.992800	-176.090100	 0.702591	-25.109120	 2.094117	-9.786460	-0.078160	-4.904132	 68.877120	 4.549463	 1.292262	 28.425850	-2.713146	 175.075000	 2.004423	 25.089110	-2.512282	-12.035610	 0.001360	 5.093449	 69.989110	-4.656736	-1.288183	 28.361890	 2.710176	-1.668353	 2.496451	 42.965720	-2.271836	 2.938845	 5.148582	 2.168702	-3.644963	-15.078760	-101.478000	 1.740658	 90.353390	 35.268200	 49.915780	-26.543520	 9.678924	 4.420000	-20.765470	 4.978920	-0.476192	 63.343560	-6.580301	 5.266122	 0.000000	 0.000000	 0.000000	 0.000000	 0.000000	 0.000000	 0.000000	 0.089846	-3.783161	 0.005928	 0.025482	 0.777697	-3.753341	 101.796200	-0.213304	-89.955450	-67.235190	-11.903970	 66.930000	-10.231690	 4.813702	 16.019530	-15.733620	-14.133510	-113.688200	 15.208500	 5.323790	 0.000000	 0.000000	 0.000000	 0.000000	 0.000000	 0.000000	 0.000000
 0.002335	 1.271135	 0.063403	-0.388899	 0.005028	-179.992900	-176.085400	 0.707540	-25.108920	 2.096414	-9.796968	-0.077756	-4.905384	 68.882710	 4.549734	 1.292262	 28.425850	-2.713146	 175.079300	 2.000816	 25.089370	-2.510711	-12.028310	 0.001687	 5.093177	 69.985230	-4.657076	-1.288183	 28.361890	 2.710176	-1.344536	 2.685786	 35.687620	-2.250307	 2.931296	 5.095773	 2.147964	-3.637130	-14.923550	-101.478000	 1.740664	 90.353390	 35.242880	 49.899910	-26.526660	 7.370802	 4.384133	-14.067300	 4.631579	-0.157986	 70.264340	-6.580301	 5.266122	 0.000000	 0.000000	 0.000000	 0.000000	 0.000000	 0.000000	 0.000000	 0.089846	-3.783161	 0.005928	 0.025631	 0.790488	-3.714150	 101.796200	-0.213327	-89.955440	-67.299390	-12.010520	 67.059060	-7.926382	 4.572493	 9.348691	-14.463330	-13.671030	-120.064700	 15.208500	 5.323790	 0.000000	 0.000000	 0.000000	 0.000000	 0.000000	 0.000000	 0.000000
 0.002324	 1.271135	 0.063403	-0.384705	 0.004799	-179.993000	-176.080200	 0.713463	-25.108660	 2.098984	-9.808747	-0.077325	-4.906747	 68.888890	 4.550016	 1.292262	 28.425850	-2.713146	 175.084100	 1.997266	 25.089590	-2.509015	-12.020420	 0.002037	 5.092539	 69.981030	-4.657079	-1.288183	 28.361890	 2.710176	-0.977612	 2.838098	 27.952360	-2.224380	 2.930360	 5.033842	 2.122498	-3.637929	-14.741020	-101.478000	 1.740658	 90.353380	 35.290780	 49.941890	-26.570940	 5.355851	 4.347453	-8.220201	 3.671212	 1.299426	 74.519490	-6.580301	 5.266122	 0.000000	 0.000000	 0.000000	 0.000000	 0.000000	 0.000000	 0.000000	 0.089846	-3.783161	 0.005928	 0.025751	 0.804196	-3.667972	 101.796200	-0.213309	-89.955450	-67.079330	-11.439440	 67.291510	-5.944981	 4.380267	 3.899949	-7.915102	-13.030130	-118.461400	 15.208500	 5.323790	 0.000000	 0.000000	 0.000000	 0.000000	 0.000000	 0.000000	 0.000000
 0.002311	 1.271134	 0.063403	-0.379546	 0.004873	-179.993100	-176.073800	 0.720338	-25.108380	 2.102146	-9.823217	-0.076777	-4.908575	 68.896540	 4.550517	 1.292262	 28.425850	-2.713146	 175.090100	 1.992313	 25.089850	-2.506835	-12.010290	 0.002494	 5.091742	 69.975620	-4.657105	-1.288183	 28.361890	 2.710176	-0.538592	 2.950012	 19.098310	-2.191220	 2.934632	 4.955534	 2.089526	-3.645731	-14.508990	-101.478000	 1.740669	 90.353380	 35.463550	 50.077030	-26.752370	 3.278893	 4.304619	-2.192795	 2.281652	 3.355692	 77.341530	-6.580301	 5.266122	 0.000000	 0.000000	 0.000000	 0.000000	 0.000000	 0.000000	 0.000000	 0.089846	-3.783161	 0.005928	 0.025858	 0.820702	-3.609281	 101.796200	-0.213311	-89.955450	-66.354510	-9.724945	 66.824230	-3.953868	 4.287828	-1.709988	-1.722701	-11.865350	-114.732200	 15.208500	 5.323790	 0.000000	 0.000000	 0.000000	 0.000000	 0.000000	 0.000000	 0.000000
